<?xml version="1.0" encoding="UTF-8"?>
<svg id="Layer_1" data-name="Layer 1" xmlns="http://www.w3.org/2000/svg" viewBox="0 0 1051.952 1051.968">
  <defs>
    <style>
      .cls-1 {
        fill: none;
        stroke-miterlimit: 10.735;
        stroke-width: 34.889px;
      }

      .cls-1, .cls-2, .cls-3, .cls-4 {
        stroke: #000;
      }

      .cls-2, .cls-5 {
        fill: #3e5caa;
      }

      .cls-2, .cls-3 {
        stroke-width: 35px;
      }

      .cls-2, .cls-3, .cls-4 {
        fill-rule: evenodd;
      }

      .cls-6 {
        isolation: isolate;
      }

      .cls-3, .cls-7 {
        fill: #ed2024;
      }

      .cls-4 {
        stroke-width: 28.15px;
      }
    </style>
  </defs>
  <path class="cls-4" d="M298.075,14.075h455.802c156.848,0,284,127.151,284,284v455.818c0,156.849-127.152,284-284,284h-455.802c-156.848,0-284-127.151-284-284v-455.818C14.075,141.226,141.227,14.075,298.075,14.075Z"/>
  <g class="cls-6">
    <g class="cls-6">
      <path class="cls-5" d="M347.411,497.769h16.103c10.19,0,22.142-4.957,35.828-14.895,13.688-9.926,22.405-20.795,26.167-32.607,3.749-11.8,5.636-27.639,5.636-47.503s-1.887-36.356-5.636-49.515c-3.762-13.146-12.479-24.556-26.167-34.218-13.687-9.662-26.846-14.493-39.451-14.493s-29.664,6.982-51.125,20.934c1.609,17.713,2.415,35.702,2.415,53.943v391.292h-111.107v-344.595c0-45.087-3.095-76.89-9.259-95.407-6.177-18.518-19.197-40.118-39.049-64.813l96.615-68.436c13.951,9.662,26.292,25.5,37.036,47.502,44.005-31.664,75.404-47.502,94.199-47.502s44.811,15.033,78.098,45.087c33.274,30.066,55.817,55.29,67.63,75.682,5.9,7.523,8.856,33.551,8.856,78.097s-2.956,72.738-8.856,84.539c-11.812,20.405-34.355,45.628-67.63,75.682-33.287,30.067-59.315,45.087-78.098,45.087h-32.205v-103.861Z"/>
    </g>
    <g class="cls-6">
      <path class="cls-1" d="M347.411,497.769h16.103c10.19,0,22.142-4.957,35.828-14.895,13.688-9.926,22.405-20.795,26.167-32.607,3.749-11.8,5.636-27.639,5.636-47.503s-1.887-36.356-5.636-49.515c-3.762-13.146-12.479-24.556-26.167-34.218-13.687-9.662-26.846-14.493-39.451-14.493s-29.664,6.982-51.125,20.934c1.609,17.713,2.415,35.702,2.415,53.943v391.292h-111.107v-344.595c0-45.087-3.095-76.89-9.259-95.407-6.177-18.518-19.197-40.118-39.049-64.813l96.615-68.436c13.951,9.662,26.292,25.5,37.036,47.502,44.005-31.664,75.404-47.502,94.199-47.502s44.811,15.033,78.098,45.087c33.274,30.066,55.817,55.29,67.63,75.682,5.9,7.523,8.856,33.551,8.856,78.097s-2.956,72.738-8.856,84.539c-11.812,20.405-34.355,45.628-67.63,75.682-33.287,30.067-59.315,45.087-78.098,45.087h-32.205v-103.861Z"/>
    </g>
    <g class="cls-6">
      <path class="cls-7" d="M758.021,497.769h16.103c10.189,0,22.141-4.957,35.828-14.895,13.688-9.926,22.405-20.795,26.167-32.607,3.748-11.8,5.636-27.639,5.636-47.503s-1.888-36.356-5.636-49.515c-3.762-13.146-12.479-24.556-26.167-34.218s-26.846-14.493-39.451-14.493-29.664,6.982-51.126,20.934c1.61,17.713,2.416,35.702,2.416,53.943v391.292h-111.107v-344.595c0-45.087-3.095-76.89-9.26-95.407-6.177-18.518-19.197-40.118-39.048-64.813l96.615-68.436c13.951,9.662,26.292,25.5,37.035,47.502,44.006-31.664,75.405-47.502,94.2-47.502s44.811,15.033,78.098,45.087c33.274,30.066,55.817,55.29,67.63,75.682,5.9,7.523,8.856,33.551,8.856,78.097s-2.956,72.738-8.856,84.539c-11.812,20.405-34.355,45.628-67.63,75.682-33.287,30.067-59.315,45.087-78.098,45.087h-32.205v-103.861Z"/>
    </g>
    <g class="cls-6">
      <path class="cls-1" d="M758.021,497.769h16.103c10.189,0,22.141-4.957,35.828-14.895,13.688-9.926,22.405-20.795,26.167-32.607,3.748-11.8,5.636-27.639,5.636-47.503s-1.888-36.356-5.636-49.515c-3.762-13.146-12.479-24.556-26.167-34.218s-26.846-14.493-39.451-14.493-29.664,6.982-51.126,20.934c1.61,17.713,2.416,35.702,2.416,53.943v391.292h-111.107v-344.595c0-45.087-3.095-76.89-9.26-95.407-6.177-18.518-19.197-40.118-39.048-64.813l96.615-68.436c13.951,9.662,26.292,25.5,37.035,47.502,44.006-31.664,75.405-47.502,94.2-47.502s44.811,15.033,78.098,45.087c33.274,30.066,55.817,55.29,67.63,75.682,5.9,7.523,8.856,33.551,8.856,78.097s-2.956,72.738-8.856,84.539c-11.812,20.405-34.355,45.628-67.63,75.682-33.287,30.067-59.315,45.087-78.098,45.087h-32.205v-103.861Z"/>
    </g>
  </g>
  <path class="cls-2" d="M250.171,688.556c37.003,0,67,29.997,67,67s-29.997,67-67,67-67-29.997-67-67,29.997-67,67-67Z"/>
  <path class="cls-2" d="M218.761,219.847c37.003,0,67,29.997,67,67s-29.997,67-67,67-67-29.997-67-67,29.997-67,67-67Z"/>
  <path class="cls-2" d="M341.127,489.275c37.003,0,67,29.997,67,67s-29.997,67-67,67-67-29.997-67-67,29.997-67,67-67Z"/>
  <path class="cls-3" d="M670.401,698.121c37.003,0,67,29.997,67,67s-29.997,67-67,67-67-29.997-67-67,29.997-67,67-67Z"/>
  <path class="cls-3" d="M620.855,219.847c37.003,0,67,29.997,67,67s-29.997,67-67,67-67-29.997-67-67,29.997-67,67-67Z"/>
  <path class="cls-3" d="M737.401,489.275c37.003,0,67,29.997,67,67s-29.997,67-67,67-67-29.997-67-67,29.997-67,67-67Z"/>
</svg>